<svg xmlns="http://www.w3.org/2000/svg" width="38.004" height="24.9" viewBox="0 0 38.004 24.9"><path d="M35.158,88.276H2.846A2.846,2.846,0,0,0,0,91.122v19.207a2.846,2.846,0,0,0,2.846,2.846H35.158A2.846,2.846,0,0,0,38,110.329V91.122A2.846,2.846,0,0,0,35.158,88.276Z" transform="translate(0 -88.276)" fill="#41479b"/><path d="M37.965,90.651a2.847,2.847,0,0,0-2.807-2.376h-.741L22.278,96.228V88.275H15.726v7.953L3.587,88.275H2.846A2.847,2.847,0,0,0,.039,90.651l10.375,6.8H0V104H10.415L.039,110.8a2.847,2.847,0,0,0,2.807,2.376h.741l12.139-7.953v7.953h6.552v-7.953l12.139,7.953h.741a2.847,2.847,0,0,0,2.807-2.376L27.59,104H38V97.448H27.59Z" transform="translate(0 -88.275)" fill="#f5f5f5"/><g transform="translate(0 0)"><path d="M20.968,88.276H17.036V98.76H0v3.932H17.036v10.484h3.932V102.692H38V98.76H20.968Z" transform="translate(0 -88.276)" fill="#ff4b55"/><path d="M10.431,309.525l14.462-9.387H22.379L9.224,308.677A2.976,2.976,0,0,0,10.431,309.525Z" transform="translate(-8.509 -284.817)" fill="#ff4b55"/><path d="M316.473,300.138H313.96l14.007,9.092a2.986,2.986,0,0,0,.952-1.013Z" transform="translate(-291.305 -284.817)" fill="#ff4b55"/><path d="M4.049,96.9l12.225,7.936h2.513L4.935,95.842A2.984,2.984,0,0,0,4.049,96.9Z" transform="translate(-3.735 -95.256)" fill="#ff4b55"/><path d="M302.651,100.024l13.179-8.555a2.976,2.976,0,0,0-1.217-.842l-14.476,9.4Z" transform="translate(-278.555 -90.445)" fill="#ff4b55"/></g></svg>