<svg xmlns="http://www.w3.org/2000/svg" width="38" height="24.897" viewBox="0 0 38 24.897"><g transform="translate(0 -88.276)"><path d="M1.017,97.251A2.839,2.839,0,0,0,0,99.431v19.2a2.839,2.839,0,0,0,1.017,2.18L19,109.033Z" transform="translate(0 -8.309)" fill="#41479b"/><path d="M13.7,267.784a2.833,2.833,0,0,0,1.829.666H47.837a2.846,2.846,0,0,0,2.846-2.846V256h-19Z" transform="translate(-12.683 -155.277)" fill="#ff4b55"/><path d="M47.838,88.276H15.53a2.834,2.834,0,0,0-1.829.666l17.983,11.784h19v-9.6A2.846,2.846,0,0,0,47.838,88.276Z" transform="translate(-12.684)" fill="#f5f5f5"/></g></svg>