<svg width="47" height="54" viewBox="0 0 47 54" fill="none" xmlns="http://www.w3.org/2000/svg">
<path d="M3.21691 24.9707C1.5795 24.9707 0.292969 23.6842 0.292969 22.0468V10.5849C0.292969 8.12882 2.39821 6.14054 4.85432 6.25749C6.0239 6.25749 7.19347 6.84228 8.01218 7.66098C7.89522 7.19315 7.77826 6.72532 7.77826 6.14054C7.89522 3.21659 10.3513 0.877441 13.2753 0.877441C15.4975 0.877441 17.4857 2.39789 18.1875 4.50313C20.4097 2.51485 23.8015 2.74876 25.7897 5.08792C26.0237 5.43879 26.3745 5.78966 26.4915 6.14054C27.3102 5.55575 28.1289 5.32183 29.1815 5.32183C31.6376 5.32183 33.6259 7.31011 33.6259 9.76622C33.6259 10.8188 33.275 11.7545 32.5733 12.5732L32.2224 13.041H23.9184C23.9184 13.158 23.9184 13.158 23.9184 13.275C23.9184 13.7428 23.9184 14.0937 23.9184 14.5615C23.9184 14.7954 23.9184 15.0293 23.9184 15.1463C23.9184 18.0702 21.4623 20.4094 18.4214 20.4094C15.9653 20.4094 13.7431 18.538 13.2753 16.0819C12.2227 18.3041 9.53263 19.2398 7.31043 18.1872C6.8426 17.9533 6.49173 17.7193 6.14085 17.3685V22.1637C6.14085 23.8011 4.85432 25.0877 3.21691 24.9707Z" fill="white"/>
<path d="M8.36358 53.9762C6.14138 54.2101 4.1531 52.6897 3.91919 50.4675C3.91919 50.1166 3.91919 49.8827 3.91919 49.5318V25.0877L4.62094 24.7368C5.67355 24.269 6.25834 23.2163 6.25834 22.1637V17.8363L7.77879 18.4211C8.24662 18.538 8.71445 18.655 9.29924 18.655C10.3519 18.655 11.5214 18.3041 12.3401 17.6024L13.3928 16.6667L14.0945 17.8363C15.0302 19.4737 16.7845 20.4093 18.6559 20.4093C21.5798 20.4093 24.0359 18.0702 24.0359 15.1463C24.0359 15.0293 24.0359 14.7954 24.0359 14.5615L24.1529 13.041H31.8721C32.5738 13.041 33.1586 13.6258 33.1586 14.3276V49.5318C33.3925 51.754 31.8721 53.7423 29.6499 53.9762C29.299 53.9762 29.0651 53.9762 28.7142 53.9762H8.36358Z" fill="#FBCF4C"/>
<path d="M33.041 47.7767V41.227H37.2514C39.9414 41.227 40.1754 38.537 40.1754 37.3674V29.6482C40.1754 28.4787 39.9414 25.7886 37.2514 25.7886H33.041V19.356H40.7601C44.1519 19.356 46.1402 21.929 46.1402 26.3734V40.6422C46.1402 45.0866 44.1519 47.6597 40.7601 47.6597L33.041 47.7767Z" fill="#FBCF4C"/>
<path d="M40.7605 19.356H37.0178C40.4096 19.356 42.3979 21.929 42.3979 26.3734V40.6423C42.3979 45.0866 40.4096 47.6597 37.0178 47.6597H40.7605C44.1522 47.6597 46.1405 45.0866 46.1405 40.6423V26.3734C46.1405 21.929 44.1522 19.356 40.7605 19.356Z" fill="#EDB248"/>
<path d="M9.81783 22.6611C9.3179 22.6611 8.98462 22.8745 8.98462 23.1946V31.9441C8.98462 32.2642 9.3179 32.4776 9.81783 32.4776C10.3178 32.4776 10.651 32.2642 10.651 31.9441V23.1946C10.651 22.8745 10.2344 22.6611 9.81783 22.6611Z" fill="#78565A"/>
<path d="M13.7337 22.6611C13.2337 22.6611 12.9005 22.8745 12.9005 23.1946V31.9441C12.9005 32.2642 13.2337 32.4776 13.7337 32.4776C14.2336 32.4776 14.5669 32.2642 14.5669 31.9441V23.1946C14.5669 22.8745 14.2336 22.6611 13.7337 22.6611Z" fill="#78565A"/>
<path d="M17.7333 22.6611C17.2334 22.6611 16.9001 22.8745 16.9001 23.1946V31.9441C16.9001 32.2642 17.2334 32.4776 17.7333 32.4776C18.2332 32.4776 18.5665 32.2642 18.5665 31.9441V23.1946C18.5665 22.8745 18.1499 22.6611 17.7333 22.6611Z" fill="#78565A"/>
</svg>
