<svg width="19" height="22" viewBox="0 0 19 22" fill="none" xmlns="http://www.w3.org/2000/svg">
<path d="M9.75 8.5H13.5C14.0523 8.5 14.5 8.9477 14.5 9.5V21H3.5V9.5C3.5 8.9477 3.9477 8.5 4.5 8.5H5.75" stroke="white" stroke-width="2" stroke-linecap="round" stroke-linejoin="round"/>
<path d="M5.5 3H4.25C2.7312 3 1.5 4.2312 1.5 5.75C1.5 7.2688 2.7312 8.5 4.25 8.5H6.5V13.75C6.5 14.4403 7.05965 15 7.75 15C8.44035 15 9 14.4403 9 13.75V8.5H13.75C15.2688 8.5 16.5 7.2688 16.5 5.75C16.5 4.2312 15.2688 3 13.75 3H11.5C11.5 3 11 1 8.5 1C6 1 5.5 3 5.5 3Z" stroke="white" stroke-width="2" stroke-linecap="round" stroke-linejoin="round"/>
<path d="M14.5 9.5H17C17.5523 9.5 18 9.9477 18 10.5V13C18 14.1046 17.1046 15 16 15H14.5" stroke="white" stroke-width="2" stroke-linecap="round"/>
</svg>
