<svg class="fill-inherit" width="21" height="21" viewBox="0 0 21 21" xmlns="http://www.w3.org/2000/svg">
    <path
        d="M8.28782 0C3.72369 0 0 3.72365 0 8.28779C0 12.8519 3.72369 16.5756 8.28782 16.5756C10.1732 16.5756 11.917 15.9425 13.3123 14.8749L19.1051 20.6764C19.5366 21.1079 20.2448 21.1079 20.6764 20.6764C21.1079 20.2448 21.1079 19.5453 20.6764 19.1137L14.8749 13.3123C15.9421 11.9171 16.5756 10.1728 16.5756 8.28779C16.5756 3.72365 12.8519 0 8.28782 0ZM8.28782 2.21007C11.6575 2.21007 14.3655 4.91808 14.3655 8.28779C14.3655 11.6574 11.6575 14.3655 8.28782 14.3655C4.91812 14.3655 2.21008 11.6574 2.21008 8.28779C2.21008 4.91808 4.91812 2.21007 8.28782 2.21007Z"
    />
</svg>
