<svg width="22" height="22" viewBox="0 0 22 22" fill="none" xmlns="http://www.w3.org/2000/svg">
<path fill-rule="evenodd" clip-rule="evenodd" d="M12.4305 18.6365V11.6704H14.8134L15.1709 8.95478H12.4305V7.22126C12.4305 6.43527 12.6521 5.89963 13.8025 5.89963L15.2674 5.89903V3.47009C15.0141 3.4378 14.1445 3.36377 13.1324 3.36377C11.0189 3.36377 9.57199 4.62909 9.57199 6.9523V8.95478H7.18182V11.6704H9.57199V18.6365H12.4305Z" fill="white"/>
<mask id="mask0" mask-type="alpha" maskUnits="userSpaceOnUse" x="7" y="3" width="9" height="16">
<path fill-rule="evenodd" clip-rule="evenodd" d="M12.4305 18.6365V11.6704H14.8134L15.1709 8.95478H12.4305V7.22126C12.4305 6.43527 12.6521 5.89963 13.8025 5.89963L15.2674 5.89903V3.47009C15.0141 3.4378 14.1445 3.36377 13.1324 3.36377C11.0189 3.36377 9.57199 4.62909 9.57199 6.9523V8.95478H7.18182V11.6704H9.57199V18.6365H12.4305Z" fill="white"/>
</mask>
<g mask="url(#mask0)">
</g>
</svg>
