<svg width="22" height="22" viewBox="0 0 22 22" fill="none" xmlns="http://www.w3.org/2000/svg">
<path fill-rule="evenodd" clip-rule="evenodd" d="M11 9.66381V12.3365H14.7806C14.2286 13.8921 12.7426 15.0093 11 15.0093C8.78965 15.0093 6.9909 13.2105 6.9909 11.0002C6.9909 8.78983 8.78965 6.99109 11 6.99109C11.9582 6.99109 12.8803 7.33453 13.5965 7.95861L15.3525 5.94338C14.1498 4.89567 12.605 4.31836 11 4.31836C7.31564 4.31836 4.31818 7.31582 4.31818 11.0002C4.31818 14.6845 7.31564 17.682 11 17.682C14.6843 17.682 17.6818 14.6845 17.6818 11.0002V9.66381H11Z" fill="white"/>
<mask id="mask0" mask-type="alpha" maskUnits="userSpaceOnUse" x="4" y="4" width="14" height="14">
<path fill-rule="evenodd" clip-rule="evenodd" d="M11 9.66381V12.3365H14.7806C14.2286 13.8921 12.7426 15.0093 11 15.0093C8.78965 15.0093 6.9909 13.2105 6.9909 11.0002C6.9909 8.78983 8.78965 6.99109 11 6.99109C11.9582 6.99109 12.8803 7.33453 13.5965 7.95861L15.3525 5.94338C14.1498 4.89567 12.605 4.31836 11 4.31836C7.31564 4.31836 4.31818 7.31582 4.31818 11.0002C4.31818 14.6845 7.31564 17.682 11 17.682C14.6843 17.682 17.6818 14.6845 17.6818 11.0002V9.66381H11Z" fill="white"/>
</mask>
<g mask="url(#mask0)">
</g>
</svg>
