<svg width="22" height="22" viewBox="0 0 22 22" fill="none" xmlns="http://www.w3.org/2000/svg">
<path fill-rule="evenodd" clip-rule="evenodd" d="M7.15058 2.40918H14.8493C17.4639 2.40918 19.591 4.5363 19.5909 7.15074V14.8494C19.5909 17.4639 17.4639 19.591 14.8493 19.591H7.15058C4.53614 19.591 2.40912 17.464 2.40912 14.8494V7.15074C2.40912 4.5363 4.53614 2.40918 7.15058 2.40918ZM14.8494 18.0665C16.6233 18.0665 18.0666 16.6234 18.0666 14.8494H18.0665V7.15074C18.0665 5.37689 16.6232 3.93363 14.8493 3.93363H7.15058C5.37672 3.93363 3.93357 5.37689 3.93357 7.15074V14.8494C3.93357 16.6234 5.37672 18.0666 7.15058 18.0665H14.8494ZM6.50003 11.0002C6.50003 8.5188 8.51869 6.50009 11 6.50009C13.4814 6.50009 15.5 8.5188 15.5 11.0002C15.5 13.4815 13.4814 15.5001 11 15.5001C8.51869 15.5001 6.50003 13.4815 6.50003 11.0002ZM8.04951 11.0001C8.04951 12.627 9.37318 13.9505 11 13.9505C12.6269 13.9505 13.9505 12.627 13.9505 11.0001C13.9505 9.3731 12.627 8.0495 11 8.0495C9.37307 8.0495 8.04951 9.3731 8.04951 11.0001Z" fill="white"/>
<mask id="mask0" mask-type="alpha" maskUnits="userSpaceOnUse" x="2" y="2" width="18" height="18">
<path fill-rule="evenodd" clip-rule="evenodd" d="M7.15058 2.40918H14.8493C17.4639 2.40918 19.591 4.5363 19.5909 7.15074V14.8494C19.5909 17.4639 17.4639 19.591 14.8493 19.591H7.15058C4.53614 19.591 2.40912 17.464 2.40912 14.8494V7.15074C2.40912 4.5363 4.53614 2.40918 7.15058 2.40918ZM14.8494 18.0665C16.6233 18.0665 18.0666 16.6234 18.0666 14.8494H18.0665V7.15074C18.0665 5.37689 16.6232 3.93363 14.8493 3.93363H7.15058C5.37672 3.93363 3.93357 5.37689 3.93357 7.15074V14.8494C3.93357 16.6234 5.37672 18.0666 7.15058 18.0665H14.8494ZM6.50003 11.0002C6.50003 8.5188 8.51869 6.50009 11 6.50009C13.4814 6.50009 15.5 8.5188 15.5 11.0002C15.5 13.4815 13.4814 15.5001 11 15.5001C8.51869 15.5001 6.50003 13.4815 6.50003 11.0002ZM8.04951 11.0001C8.04951 12.627 9.37318 13.9505 11 13.9505C12.6269 13.9505 13.9505 12.627 13.9505 11.0001C13.9505 9.3731 12.627 8.0495 11 8.0495C9.37307 8.0495 8.04951 9.3731 8.04951 11.0001Z" fill="white"/>
</mask>
<g mask="url(#mask0)">
</g>
</svg>
