<svg width="23" height="23" viewBox="0 0 23 23" class="fill-inherit" xmlns="http://www.w3.org/2000/svg">
    <path
        d="M17.3456 12.5769L17.3456 12.5769L17.3428 12.5751C17.0296 12.3807 16.5813 12.4462 16.3669 12.7869C16.1698 13.1001 16.2371 13.5471 16.578 13.7603C19.2629 15.4787 20.8779 18.4396 20.8779 21.6033C20.8779 21.9809 21.202 22.3 21.5772 22.3C21.7686 22.3 21.9446 22.2175 22.071 22.1012C22.1974 21.9849 22.3 21.8102 22.3 21.6033C22.3 17.9544 20.4391 14.5455 17.3456 12.5769ZM5.63371 12.5751L5.63369 12.5751L5.62999 12.5775C2.56059 14.5461 0.7 17.9547 0.7 21.6033C0.7 21.9809 1.02413 22.3 1.39933 22.3C1.80948 22.3 2.09866 21.9693 2.09866 21.6033C2.09866 18.4396 3.71366 15.4787 6.39849 13.7603C6.73939 13.5471 6.80669 13.1001 6.60962 12.7869C6.39524 12.4462 5.94687 12.3807 5.63371 12.5751ZM4.59933 7.55667C4.59933 11.3409 7.69527 14.4133 11.5 14.4133C15.3047 14.4133 18.4007 11.3409 18.4007 7.55667C18.4007 3.77243 15.3047 0.7 11.5 0.7C7.69527 0.7 4.59933 3.77243 4.59933 7.55667ZM6.02148 7.55667C6.02148 4.52715 8.46936 2.09392 11.4989 2.09333C14.5306 2.11606 16.9792 4.55116 17.002 7.55785C17.0014 10.5615 14.532 12.9967 11.5 12.9967C8.46836 12.9967 6.02148 10.585 6.02148 7.55667Z"
        stroke-width="0.6"
    />
</svg>
